<svg version="1.2" xmlns="http://www.w3.org/2000/svg" viewBox="0 0 40 40" width="40" height="40">
	<title>lista-icon</title>
	<style>
		.s0 { fill: #ffc55b } 
		.s1 { fill: #faaa32 } 
		.s2 { fill: #009c89 } 
		.s3 { fill: #3ac2b9 } 
		.s4 { fill: #060a08 } 
		.s5 { fill: #fdf3c8 } 
		.s6 { fill: #ec1c24 } 
		.s7 { fill: #ad020d } 
		.s8 { fill: #f07263 } 
		.s9 { fill: #426263 } 
		.s10 { fill: #7fbdae } 
		.s11 { opacity: .6;mix-blend-mode: screen;fill: #ffffff } 
		.s12 { fill: #c2e9d1 } 
		.s13 { opacity: .2;mix-blend-mode: screen;fill: #c2e9d1 } 
		.s14 { fill: #ffffff;stroke: #92c8bb;stroke-width: .5 } 
		.s15 { fill: #306767 } 
	</style>
	<g id="lista-icon">
		<g id="ingredientes">
			<g id="&lt;Group&gt;">
				<path id="&lt;Path&gt;" class="s0" d="m17.3 10.5l-14.3 12.8 5.5 3.1c0.2-0.3 0.6-0.5 1.1-0.5 0.8 0 1.5 0.6 1.5 1.4q0 0.3-0.1 0.5l2.6 1.5 15-13.2z"/>
				<path id="&lt;Path&gt;" class="s1" d="m13.6 29.3l13.6-4.3c0 0 3-3 1.4-8.9z"/>
				<path id="&lt;Path&gt;" class="s1" d="m13.3 21.8c-1 0-1.9-0.9-1.9-1.9 0-1.1 0.9-1.9 1.9-1.9 1.1 0 1.9 0.8 1.9 1.9 0 1-0.8 1.9-1.9 1.9z"/>
				<path id="&lt;Path&gt;" class="s1" d="m24.1 17.4c-0.7 0-1.3-0.6-1.3-1.3 0-0.8 0.6-1.3 1.3-1.3 0.7 0 1.3 0.5 1.3 1.3 0 0.7-0.6 1.3-1.3 1.3z"/>
				<path id="&lt;Path&gt;" class="s1" d="m19.4 19.8c-0.7 0-1.3-0.5-1.3-1.2 0-0.6 0.6-1.2 1.3-1.2 0.6 0 1.2 0.6 1.2 1.2 0 0.7-0.6 1.2-1.2 1.2z"/>
				<path id="&lt;Path&gt;" class="s1" d="m23.6 22.4c-0.7 0-1.2-0.5-1.2-1.2 0-0.6 0.5-1.2 1.2-1.2 0.7 0 1.2 0.6 1.2 1.2 0 0.7-0.5 1.2-1.2 1.2z"/>
				<path id="&lt;Path&gt;" class="s1" d="m12.2 25.4c-0.4 0-0.7-0.3-0.7-0.7 0-0.4 0.3-0.7 0.7-0.7 0.4 0 0.7 0.3 0.7 0.7 0 0.4-0.3 0.7-0.7 0.7z"/>
				<path id="&lt;Path&gt;" class="s1" d="m13.6 16c-0.4 0-0.7-0.3-0.7-0.7 0-0.3 0.3-0.7 0.7-0.7 0.4 0 0.7 0.4 0.7 0.7 0 0.4-0.3 0.7-0.7 0.7z"/>
				<path id="&lt;Path&gt;" class="s1" d="m7.2 23.9c-0.6 0-1.2-0.5-1.2-1.2 0-0.7 0.6-1.2 1.2-1.2 0.7 0 1.3 0.5 1.3 1.2 0 0.7-0.6 1.2-1.3 1.2z"/>
				<path id="&lt;Path&gt;" class="s1" d="m17.6 26c-0.7 0-1.2-0.6-1.2-1.2 0-0.7 0.5-1.2 1.2-1.2 0.7 0 1.2 0.5 1.2 1.2 0 0.6-0.5 1.2-1.2 1.2z"/>
				<path id="&lt;Path&gt;" class="s1" d="m18.1 16.1c-0.8 0-1.5-0.7-1.5-1.5 0-0.9 0.7-1.6 1.5-1.6 0.9 0 1.6 0.7 1.6 1.6 0 0.8-0.7 1.5-1.6 1.5z"/>
			</g>
			<g id="&lt;Group&gt;">
				<path id="&lt;Path&gt;" class="s2" d="m36.1 25v-17.3h-13.7v17.3c0 0-0.2 2 6.9 1.9 7 0.1 6.8-1.9 6.8-1.9z"/>
				<path id="&lt;Path&gt;" class="s3" d="m36.1 7.7c-0.5-1.2-6.8-1.4-6.8-1.4 0 0-6.4 0.2-6.9 1.4 0 0-0.2 1.4 6.9 1.4 7 0 6.8-1.4 6.8-1.4z"/>
				<path id="&lt;Path&gt;" class="s0" d="m29.3 24.6c-3.1 0-5.5-3.1-5.5-6.9 0-3.7 2.4-6.8 5.5-6.8 3 0 5.5 3.1 5.5 6.8 0 3.8-2.5 6.9-5.5 6.9z"/>
				<g id="&lt;Group&gt;">
					<path id="&lt;Path&gt;" class="s4" d="m30.2 18.2c0 0-0.1-0.8 0.3-2.1h0.3c0 0-0.5 1.2-0.3 2.1z"/>
					<path id="&lt;Path&gt;" class="s4" d="m28 16.7c0 0 0.2-0.6 1.2-1.6l0.2 0.2c0 0-0.8 0.6-1.2 1.5z"/>
					<g id="&lt;Group&gt;">
						<path id="&lt;Path&gt;" class="s3" d="m29.9 20.7c0.5 1.1 1.6 1.7 2.4 1.3 0.7-0.4 0.9-1.6 0.4-2.7-0.6-1.1-1.6-1.7-2.4-1.3-0.8 0.4-1 1.6-0.4 2.7z"/>
						<path id="&lt;Path&gt;" class="s2" d="m31.2 21.5c0.6-0.4 0.8-1.4 0.3-2.4-0.2-0.4-0.5-0.8-0.8-1 0.6 0 1.3 0.5 1.7 1.3 0.4 0.9 0.3 2-0.4 2.3-0.4 0.2-0.8 0.1-1.2-0.1q0.2 0 0.4-0.1z"/>
						<path id="&lt;Path&gt;" class="s5" d="m30.4 20.4c-0.2 0-0.4-0.5-0.4-1 0-0.5 0.2-1 0.4-1 0.3 0 0.5 0.5 0.5 1 0 0.5-0.2 1-0.5 1z"/>
					</g>
					<g id="&lt;Group&gt;">
						<path id="&lt;Path&gt;" class="s3" d="m25.6 17.9c-0.5 1.2-0.3 2.4 0.5 2.7 0.8 0.4 1.8-0.2 2.4-1.4 0.5-1.1 0.3-2.3-0.5-2.7-0.8-0.3-1.9 0.3-2.4 1.4z"/>
						<path id="&lt;Path&gt;" class="s2" d="m25.8 19.4c0.7 0.3 1.6-0.2 2.1-1.2 0.2-0.4 0.3-0.9 0.2-1.3 0.4 0.5 0.5 1.3 0.1 2.1-0.4 1-1.4 1.5-2 1.2-0.4-0.1-0.6-0.5-0.7-1q0.1 0.1 0.3 0.2z"/>
						<path id="&lt;Path&gt;" class="s5" d="m26.7 17.2c-0.4 0.3-0.7 0.7-0.5 0.9 0.1 0.2 0.6 0.1 1-0.2 0.5-0.3 0.7-0.8 0.5-0.9-0.1-0.2-0.6-0.1-1 0.2z"/>
					</g>
					<path id="&lt;Path&gt;" class="s4" d="m33.4 18.8c0 0-3.3-3.2-7.6-4.9l0.4-0.6c0 0 6 3 7.2 5.5z"/>
				</g>
			</g>
			<g id="&lt;Group&gt;">
				<g id="&lt;Group&gt;">
					<path id="&lt;Path&gt;" class="s6" d="m29 29.8c2 1.4 4.8 1 6.3-1l-7.3-5.3c-1.5 2-1.1 4.8 1 6.3z"/>
					<path id="&lt;Path&gt;" class="s7" d="m33.9 28.9c-0.3 0.3-0.9 0.8-1.3 0.9-2.2 0.5-4.3-0.8-4.8-3.5-0.1-0.4 0.2-1.3 0.4-1.7 0.3-0.3 0.8 0 0.9 0.5 0.5 2.2 2 3.3 4.2 3.1 0.5 0 0.8 0.3 0.6 0.7z"/>
					<path id="&lt;Path&gt;" class="s8" d="m30.3 27.8c-1 0.3-0.6 0.8-0.6 0.8 0 0 0.6 0.2 0.6-0.8z"/>
					<path id="&lt;Path&gt;" class="s8" d="m30.8 28.2c-0.8 0.6-0.3 1-0.3 1 0 0 0.7 0 0.3-1z"/>
					<path id="&lt;Path&gt;" class="s8" d="m31.7 28.6c-0.9 0.3-0.5 0.8-0.5 0.8 0 0 0.6 0.2 0.5-0.8z"/>
					<path id="&lt;Path&gt;" class="s8" d="m32.4 28.6c-0.6 0.7-0.1 0.8-0.1 0.8 0 0 0.5 0 0.1-0.8z"/>
					<path id="&lt;Path&gt;" class="s8" d="m33.4 28.5c-0.6 0.3-0.3 0.6-0.3 0.6 0 0 0.4 0.1 0.3-0.6z"/>
					<path id="&lt;Path&gt;" class="s8" d="m29.7 27.4c-0.3 1-0.8 0.6-0.8 0.6 0 0-0.3-0.6 0.8-0.6z"/>
					<path id="&lt;Path&gt;" class="s8" d="m29.2 26.5c-0.1 1-0.6 0.7-0.6 0.7 0 0-0.4-0.5 0.6-0.7z"/>
					<path id="&lt;Path&gt;" class="s8" d="m29 26c-0.4 0.8-0.7 0.3-0.7 0.3 0 0-0.1-0.5 0.7-0.3z"/>
					<path id="&lt;Path&gt;" class="s8" d="m28.8 25.2c-0.1 0.7-0.5 0.4-0.5 0.4 0 0-0.2-0.3 0.5-0.4z"/>
				</g>
				<g id="&lt;Group&gt;">
					<path id="&lt;Path&gt;" class="s6" d="m16 23.3c-0.9 4 1.4 6.9 4.9 7.6 3.4 0.8 7.1-0.7 8-4.7 0.8-3.4-2.5-4.6-5.7-4.5-0.2 0-0.5 0.1-0.8-0.2-1.9-1.6-5.5-2.2-6.4 1.8z"/>
					<path id="&lt;Path&gt;" class="s7" d="m27.1 25c0 0-2.9 6-9.7 3.2 0 0 4.9 3.3 7.6 1.3 2.6-1.9 2.1-4.5 2.1-4.5z"/>
					<path id="&lt;Path&gt;" class="s5" d="m16.9 26.8c0 0-1-3 0.7-4.4 1.9-1.7 3.6 0.4 3.6 0.4 0 0-4.3-1.6-4.3 4z"/>
					<g id="&lt;Group&gt;">
						<path id="&lt;Path&gt;" class="s3" d="m23.3 21.4c0 0 2.1 1.2 3.3 1.2 0 0-2.2 0.7-4-0.8z"/>
						<path id="&lt;Path&gt;" class="s3" d="m23.3 21.4c0 0-2.5 0.2-3.5-0.4 0 0 1.6 1.6 3.9 1z"/>
						<path id="&lt;Path&gt;" class="s3" d="m23.7 22c0 0 1.6-0.3 2-1.1 0 0-1.4 0.9-2.4 0.5-1.1-0.4 0.4 0.6 0.4 0.6z"/>
						<path id="&lt;Path&gt;" class="s3" d="m22.6 21.8c0 0-1.4-0.7-0.8-1.8 0 0 0.5 1 1.5 1.4z"/>
						<path id="&lt;Path&gt;" class="s3" d="m23.5 21.9c0 0 0.9 2 1.5 1.9 0 0-1.3-0.1-2.3-1.9z"/>
						<path id="&lt;Path&gt;" class="s3" d="m23.5 21.9c0 0-0.9 0.9-1.1 1.7 0 0-0.4-1.1 0.5-2.1z"/>
						<path id="&lt;Path&gt;" class="s3" d="m23.5 21.9c0 0 0.2-1.4 0.6-1.7 0 0-1.1 0.7-1.2 1.3z"/>
					</g>
				</g>
			</g>
		</g>
		<g id="lupa">
			<g id="lupa-icon">
				<g id="&lt;Group&gt;">
					<path id="&lt;Path&gt;" class="s9" d="m25.3 24.6l1-1.1-1.4-1.2-1 1.1z"/>
					<path id="&lt;Compound Path&gt;" fill-rule="evenodd" class="s10" d="m24.6 14.8c2.4 2.3 2.6 6.1 0.4 8.6-2.3 2.4-6.1 2.6-8.6 0.4-2.5-2.3-2.7-6.1-0.4-8.5 2.2-2.5 6.1-2.7 8.6-0.5zm-1 1.1c-1.9-1.6-4.8-1.5-6.5 0.4-1.7 1.8-1.6 4.7 0.3 6.4 1.9 1.7 4.8 1.5 6.5-0.3 1.7-1.9 1.5-4.8-0.3-6.5z"/>
					<path id="&lt;Path&gt;" class="s9" d="m31.8 31.4c0.4 0.3 1.2 0.2 1.7-0.4 0.5-0.5 0.6-1.3 0.2-1.6l-6.5-5.9c-0.4-0.4-1.1-0.2-1.7 0.4-0.5 0.5-0.6 1.3-0.2 1.6z"/>
					<path id="&lt;Path&gt;" class="s11" d="m17.4 22.7c-1.9-1.7-2-4.6-0.3-6.4 1.7-1.9 4.6-2 6.5-0.4 1.8 1.7 2 4.6 0.3 6.5-1.7 1.8-4.6 2-6.5 0.3z"/>
					<path id="&lt;Path&gt;" class="s12" d="m23.1 16.4q0.2 0.1 0.3 0.2c-1.7-1.2-4-1.1-5.4 0.5-1.4 1.5-1.3 3.8 0.1 5.3q-0.2-0.1-0.3-0.2c-1.6-1.4-1.8-3.9-0.3-5.6 1.5-1.6 4-1.7 5.6-0.2z"/>
				</g>
				<path id="&lt;Path&gt;" class="s13" d="m16.4 23.8c2.3 2 5.7 2 8 0.1l0.8 0.6c-0.2 0.4-0.1 0.8 0.1 1l6.5 5.9c0.4 0.3 1.2 0.2 1.7-0.4l-17.5-15.7c-2.3 2.4-2.1 6.2 0.4 8.5z"/>
			</g>
			<path id="&lt;Path&gt;" class="s14" d="m30.1 22.8h0.1c0.2-1.3 2.2-1 2.3 0.2h0.1c0.1-1.3 2.2-1.3 2.3 0.1h0.1c0.4-0.8 1.5-0.4 1.5 0.8 0 2.7-0.1 4.7-0.4 7.5-0.1 1.6 0.2 1.8-1 2.8l-1 5.7h-6.2l1-5.9c-0.9-0.2-1.4-1-1.6-1.9l-0.8-3.9c-0.2-0.4-0.2-1 0.3-1.3l0.9-0.6c0-0.9 0-0.1 0-3.3 0-1.7 2.4-1.5 2.4-0.2z"/>
			<path id="&lt;Path&gt;" class="s15" d="m35.6 34.9h-7.9q-0.1 2.6-0.2 5h8.1c0-1.9 0-3.6 0-5z"/>
		</g>
	</g>
</svg>