<svg version="1.2" xmlns="http://www.w3.org/2000/svg" viewBox="0 0 46 56" width="46" height="56">
	<title>410199-PD8Q5A-946-ai</title>
	<defs>
		<radialGradient id="g1" cx="23" cy="54.2" r="13.7" gradientUnits="userSpaceOnUse">
			<stop offset="0" stop-color="#000000"/>
			<stop offset="1" stop-color="#dae5df"/>
		</radialGradient>
		<linearGradient id="g2" x1="43.1" y1="3.6" x2="43.1" y2="42.9" gradientUnits="userSpaceOnUse">
			<stop offset="0" stop-color="#4ac14b"/>
			<stop offset="1" stop-color="#06853a"/>
		</linearGradient>
	</defs>
	<style>
		.s0 { opacity: .2;fill: url(#g1) } 
		.s1 { fill: url(#g2) } 
		.s2 { fill: #ffffff } 
	</style>
	<g id="OBJECTS">
		<path id="&lt;Path&gt;" class="s0" d="m23 55.2c-10.6 0-19.2-0.4-19.2-1 0-0.6 8.6-1 19.2-1 10.6 0 19.2 0.4 19.2 1 0 0.6-8.6 1-19.2 1z"/>
		<g id="&lt;Group&gt;">
			<path id="&lt;Path&gt;" class="s1" d="m23.5 3.6c-10.9 0-19.8 8.8-19.8 19.7 0 4.3 1.4 8.3 3.8 11.5l-2.5 7.3 7.6-2.4c3.1 2 6.9 3.2 10.9 3.2 11 0 19.9-8.8 19.9-19.6 0-10.9-8.9-19.7-19.9-19.7z"/>
			<g id="&lt;Group&gt;">
				<path id="&lt;Compound Path&gt;" fill-rule="evenodd" class="s2" d="m45.9 23.1c0 12.3-10.1 22.3-22.5 22.3-3.9 0-7.6-1-10.9-2.8l-12.4 4 4.1-12c-2.1-3.4-3.3-7.3-3.3-11.5 0-12.3 10.1-22.3 22.5-22.3 12.4 0 22.5 10 22.5 22.3zm-22.5-18.8c-10.4 0-18.9 8.4-18.9 18.8 0 4.1 1.3 7.9 3.6 11l-2.3 7 7.2-2.4c3 2 6.6 3.1 10.4 3.1 10.4 0 18.9-8.4 18.9-18.7 0-10.4-8.5-18.8-18.9-18.8zm11 26.5c-0.4 1.3-2.7 2.5-3.7 2.6-1 0.1-1 0.9-6.6-1.3-5.6-2.2-9.1-7.9-9.4-8.3-0.3-0.4-2.3-3-2.3-5.7 0-2.6 1.5-4 2-4.5 0.5-0.6 1.6-0.7 1.6-0.7 0 0 0.6-0.1 0.9-0.1 0.3 0 0.8 0 1.2 1.1 0.5 1.1 1.6 3.7 1.7 4 0.2 0.3 0.3 0.6 0.1 1-0.2 0.3-0.3 0.6-0.6 0.9-0.2 0.3-0.5 0.7-0.8 1-0.3 0.2-0.6 0.5-0.2 1.1 0.3 0.5 1.4 2.3 3 3.8 2.1 1.8 3.9 2.4 4.5 2.7 0.5 0.2 0.8 0.2 1.2-0.2 0.3-0.3 1.3-1.6 1.7-2.1 0.4-0.6 0.7-0.5 1.2-0.3 0.6 0.2 3.3 1.5 3.8 1.8 0.6 0.3 0.9 0.4 1.1 0.6 0.1 0.3 0.1 1.4-0.4 2.6z"/>
			</g>
		</g>
	</g>
</svg>